<?xml version="1.0" encoding="utf-8"?>
<!-- Generator: Adobe Illustrator 25.0.0, SVG Export Plug-In . SVG Version: 6.00 Build 0)  -->
<svg version="1.1" id="Layer_1" xmlns="http://www.w3.org/2000/svg" xmlns:xlink="http://www.w3.org/1999/xlink" x="0px" y="0px"
	 viewBox="0 0 74 46.5" style="enable-background:new 0 0 74 46.5;" xml:space="preserve">
<style type="text/css">
	.st0{fill:#FFFFFF;}
	.st1{fill:#9000F7;}
	.st2{enable-background:new    ;}
</style>
<g>
	<g>
		<path class="st0" d="M50.7,13.2H37.5V0h9.2c2.1,0,3.8,1.7,3.8,3.8v9.4H50.7z"/>
		<path class="st0" d="M46.9,29.3h-9.4V16.2h13.2v9.4C50.7,27.6,49,29.3,46.9,29.3z"/>
		<path class="st0" d="M34.4,13.2H21.3V3.8C21.3,1.7,23,0,25.1,0h9.4V13.2z"/>
		<path class="st1" d="M27.8,16.3c-3.6,0-6.6,3-6.6,6.6s3,6.6,6.6,6.6s6.6-3,6.6-6.6S31.6,16.3,27.8,16.3z M27.8,27.2
			c-2.4,0-4.5-2-4.5-4.5s2-4.5,4.5-4.5s4.5,2,4.5,4.5C32.3,25.3,30.3,27.2,27.8,27.2z"/>
	</g>
	<g class="st2">
		<path class="st0" d="M3.9,39.3c2.1,0,3.7,1.7,3.7,3.7c0,0.9-0.3,1.8-0.9,2.4c-0.1,0.1-0.1,0.1-0.2,0.2c-0.7,0.7-1.6,1.1-2.6,1.1
			H0.2v-7.5L3.9,39.3z M1.5,45.4h2.4c1.3,0,2.4-1.1,2.4-2.4c0-1.3-1.1-2.4-2.4-2.4H1.5V45.4z"/>
		<path class="st0" d="M15,46.7h-1.5l-0.7-1.3l-1.6-3.2l-1.6,3.2l-0.7,1.3H7.3L8,45.4l3.1-6.1l3.1,6.1L15,46.7z"/>
		<path class="st0" d="M20.7,41.3L20.7,41.3c0-0.4-0.3-0.7-0.7-0.7h-3c-0.4,0-0.7,0.3-0.7,0.7v0c0,0.4,0.3,0.7,0.7,0.7h2.7
			c0.7,0,1.3,0.3,1.7,0.8c0,0,0.1,0.1,0.1,0.1c0.3,0.4,0.5,0.9,0.5,1.5c0,1.3-1.1,2.4-2.4,2.4h-2.3c-1.3,0-2.4-1.1-2.4-2.4h1.3
			c0,0.6,0.5,1,1,1h2.3c0.6,0,1-0.5,1-1c0-0.6-0.5-1-1-1H17c-0.5,0-1-0.2-1.4-0.6c-0.1-0.1-0.2-0.2-0.3-0.3
			c-0.2-0.3-0.4-0.7-0.4-1.1v0c0-1.1,0.9-2,2-2h3c1.1,0,2,0.9,2,2v0L20.7,41.3z"/>
		<path class="st0" d="M30.6,39.3v7.5h-1.3v-3.4h-4.8v3.4h-1.3v-7.5h1.3V42h4.8v-2.7H30.6z"/>
		<path class="st0" d="M39.1,44.4c0,1.3-1.1,2.4-2.4,2.4h-5.1v-7.5h4.7c1.1,0,2,0.9,2,2c0,0.4-0.1,0.8-0.3,1.1
			C38.7,42.8,39.1,43.5,39.1,44.4z M33,42h3.4c0.4,0,0.7-0.3,0.7-0.7s-0.3-0.7-0.7-0.7H33V42z M36.8,45.4c0.6,0,1-0.5,1-1
			c0-0.6-0.5-1-1-1H33v2.1L36.8,45.4L36.8,45.4z"/>
	</g>
	<g class="st2">
		<path class="st1" d="M47.7,43c0,2.1-1.7,3.7-3.7,3.7s-3.7-1.7-3.7-3.7s1.7-3.7,3.7-3.7S47.7,40.9,47.7,43z M46.3,43
			c0-1.3-1.1-2.4-2.4-2.4c-1.3,0-2.4,1.1-2.4,2.4c0,1.3,1.1,2.4,2.4,2.4C45.3,45.4,46.3,44.3,46.3,43z"/>
	</g>
	<g class="st2">
		<path class="st0" d="M55.7,46.7h-1.5l-0.7-1.3l-1.6-3.2l-1.6,3.2l-0.7,1.3h-1.5l0.7-1.3l3.1-6.1l3.1,6.1L55.7,46.7z"/>
		<path class="st0" d="M62.4,45.4l0.7,1.3h-1.5l-0.7-1.3L60.2,44l0-0.1c-0.2-0.4-0.7-0.6-1.1-0.6h-1.3v3.4h-1.3v-7.5h4.7
			c0.6,0,1.1,0.2,1.4,0.6c0.4,0.4,0.6,0.9,0.6,1.4c0,0.8-0.5,1.5-1.2,1.8c-0.2,0.1-0.4,0.1-0.6,0.2L62.4,45.4z M61.1,42
			c0.1,0,0.2,0,0.3-0.1c0.2-0.1,0.4-0.4,0.4-0.6c0-0.2-0.1-0.4-0.2-0.5c-0.1-0.1-0.2-0.2-0.5-0.2h-3.4V42L61.1,42z"/>
		<path class="st0" d="M67.9,39.3c2.1,0,3.7,1.7,3.7,3.7c0,0.9-0.3,1.8-0.9,2.4c-0.1,0.1-0.1,0.1-0.2,0.2c-0.7,0.7-1.6,1.1-2.6,1.1
			h-3.7v-7.5L67.9,39.3L67.9,39.3z M70.3,43c0-1.3-1.1-2.4-2.4-2.4h-2.4v4.8h2.4C69.2,45.4,70.3,44.3,70.3,43z"/>
	</g>
	<g class="st2">
		<path class="st1" d="M72.7,46.8v-1.3H74v1.3H72.7z"/>
	</g>
</g>
</svg>
