<?xml version="1.0" encoding="utf-8"?>
<!-- Generator: Adobe Illustrator 25.0.0, SVG Export Plug-In . SVG Version: 6.00 Build 0)  -->
<svg version="1.1" id="Layer_1" xmlns="http://www.w3.org/2000/svg" xmlns:xlink="http://www.w3.org/1999/xlink" x="0px" y="0px"
	 viewBox="0 0 132 83.7" style="enable-background:new 0 0 132 83.7;" xml:space="preserve">
<style type="text/css">
	.st0{fill:#0C0B0C;}
	.st1{fill:#9000F7;}
	.st2{enable-background:new    ;}
</style>
<g>
	<g>
		<path class="st0" d="M90.3,23.5H66.7V0h16.5c3.8,0,6.8,3,6.8,6.8v16.7H90.3z"/>
		<path class="st0" d="M83.4,52.4H66.7V28.9h23.5v16.7C90.3,49.4,87.2,52.4,83.4,52.4z"/>
		<path class="st0" d="M61.2,23.5H37.7V6.8c0-3.8,3-6.8,6.8-6.8h16.7V23.5z"/>
		<path class="st1" d="M49.5,29c-6.5,0-11.8,5.3-11.8,11.8S43,52.6,49.5,52.6s11.8-5.3,11.8-11.8S56.1,29,49.5,29z M49.5,48.6
			c-4.4,0-8-3.6-8-8s3.6-8,8-8s8,3.6,8,8C57.4,45.2,53.8,48.6,49.5,48.6z"/>
	</g>
	<g>
		<path class="st0" d="M6.7,70.1c3.7,0,6.7,3,6.7,6.7c0,1.6-0.6,3.1-1.6,4.3c-0.1,0.1-0.2,0.3-0.4,0.4c-1.2,1.2-2.9,2-4.7,2H0V70.1
			L6.7,70.1z M2.4,81.1h4.3c2.4,0,4.3-1.9,4.3-4.3c0-2.4-1.9-4.3-4.3-4.3H2.4V81.1z"/>
		<path class="st0" d="M26.4,83.5h-2.7l-1.2-2.4l-2.9-5.7l-2.9,5.7l-1.2,2.4h-2.7l1.2-2.4l5.6-11l5.6,11L26.4,83.5z"/>
		<path class="st0" d="M36.7,73.8L36.7,73.8c0-0.7-0.6-1.3-1.2-1.3h-5.4c-0.7,0-1.2,0.6-1.2,1.2v0.1c0,0.7,0.6,1.2,1.2,1.2h4.8
			c1.2,0,2.3,0.5,3.1,1.4c0.1,0.1,0.1,0.1,0.2,0.2c0.6,0.7,1,1.7,1,2.7c0,2.3-1.9,4.2-4.2,4.2h-4.2c-2.3,0-4.2-1.9-4.2-4.2h2.4
			c0,1,0.8,1.8,1.8,1.8h4.2c1,0,1.8-0.8,1.8-1.8c0-1-0.8-1.8-1.8-1.8h-4.8c-1,0-1.8-0.4-2.5-1c-0.2-0.2-0.3-0.4-0.5-0.6
			c-0.4-0.6-0.6-1.3-0.6-2v-0.1c0-2,1.6-3.6,3.6-3.6h5.4c2,0,3.6,1.6,3.6,3.6v0.1L36.7,73.8z"/>
		<path class="st0" d="M54.4,70.1v13.3H52v-6.1h-8.6v6.1H41V70.1h2.4V75H52v-4.8H54.4z"/>
		<path class="st0" d="M69.6,79.2c0,2.3-1.9,4.3-4.3,4.3h-9.1V70.1h8.4c2,0,3.6,1.6,3.6,3.6c0,0.7-0.2,1.4-0.6,1.9
			C68.9,76.4,69.6,77.7,69.6,79.2z M58.7,75h6c0.7,0,1.2-0.6,1.2-1.2s-0.6-1.2-1.2-1.2h-6V75z M65.4,81.1c1,0,1.9-0.8,1.9-1.9
			c0-1-0.8-1.9-1.9-1.9h-6.7v3.8L65.4,81.1L65.4,81.1z"/>
	</g>
	<g class="st2">
		<path class="st1" d="M84.9,76.8c0,3.7-3,6.7-6.7,6.7s-6.7-3-6.7-6.7s3-6.7,6.7-6.7S84.9,73.1,84.9,76.8z M82.5,76.8
			c0-2.4-1.9-4.3-4.3-4.3s-4.3,1.9-4.3,4.3c0,2.4,1.9,4.3,4.3,4.3S82.5,79.2,82.5,76.8z"/>
	</g>
	<g>
		<path class="st0" d="M99.3,83.5h-2.7l-1.2-2.4l-2.9-5.7l-2.9,5.7l-1.2,2.4h-2.7l1.2-2.4l5.6-11l5.6,11L99.3,83.5z"/>
		<path class="st0" d="M111.2,81.1l1.2,2.4h-2.7l-1.2-2.4l-1.3-2.5l-0.1-0.1c-0.4-0.7-1.2-1.1-2-1.1h-2.4v6.1h-2.4V70.2h8.4
			c1,0,1.9,0.4,2.5,1c0.6,0.6,1,1.5,1,2.5c0,1.4-0.9,2.7-2.1,3.3c-0.3,0.2-0.7,0.2-1,0.3L111.2,81.1z M108.8,75c0.2,0,0.3,0,0.5-0.1
			c0.4-0.2,0.7-0.6,0.7-1.1c0-0.4-0.2-0.7-0.4-0.9c-0.2-0.2-0.4-0.3-0.9-0.3h-6V75L108.8,75z"/>
		<path class="st0" d="M121,70.1c3.7,0,6.7,3,6.7,6.7c0,1.6-0.6,3.1-1.6,4.3c-0.1,0.1-0.2,0.3-0.4,0.4c-1.2,1.2-2.9,2-4.7,2h-6.7
			V70.1L121,70.1L121,70.1z M125.3,76.8c0-2.4-1.9-4.3-4.3-4.3h-4.3v8.6h4.3C123.3,81.1,125.3,79.2,125.3,76.8z"/>
	</g>
	<g class="st2">
		<path class="st1" d="M129.5,83.6v-2.4h2.4v2.4H129.5z"/>
	</g>
</g>
</svg>
